<mxfile host="app.diagrams.net" modified="2023-10-19T04:02:39.354Z" agent="Mozilla/5.0 (Windows NT 10.0; Win64; x64) AppleWebKit/537.36 (KHTML, like Gecko) Chrome/117.0.0.0 Safari/537.36" version="22.0.4" etag="Hs3syXr2QeCXCxo41gox" type="github">
  <diagram name="Страница — 1" id="88BCgNNSw5J-z50wASQ8">
    <mxGraphModel>
      <root>
        <mxCell id="0" />
        <mxCell id="1" parent="0" />
      </root>
    </mxGraphModel>
  </diagram>
</mxfile>
